#tb 0: 1000/14587
#media_type 0: video
#codec_id 0: rawvideo
#dimensions 0: 481x241
#sar 0: 0/1
0,          0,          0,        1,   174243, 0x15ab835b
0,          1,          1,        1,   174243, 0x12d3acd0
0,          2,          2,        1,   174243, 0x12d3acd0
0,          3,          3,        1,   174243, 0x12d3acd0
0,          4,          4,        1,   174243, 0x12d3acd0
0,          5,          5,        1,   174243, 0x12d3acd0
0,          6,          6,        1,   174243, 0x12d3acd0
0,          7,          7,        1,   174243, 0x12d3acd0
0,          8,          8,        1,   174243, 0x12d3acd0
0,          9,          9,        1,   174243, 0xb21561b4
0,         10,         10,        1,   174243, 0x49343b5b
0,         11,         11,        1,   174243, 0x9bd65f49
0,         12,         12,        1,   174243, 0xed3b9960
0,         13,         13,        1,   174243, 0x14f70294
0,         14,         14,        1,   174243, 0x14f70294
0,         15,         15,        1,   174243, 0x14f70294
0,         16,         16,        1,   174243, 0x92ac2316
0,         17,         17,        1,   174243, 0x12729ac0
0,         18,         18,        1,   174243, 0x6db0bfbd
0,         19,         19,        1,   174243, 0x6db0bfbd
0,         20,         20,        1,   174243, 0x6db0bfbd
0,         21,         21,        1,   174243, 0x6db0bfbd
0,         22,         22,        1,   174243, 0xd66cbef7
0,         23,         23,        1,   174243, 0xd66cbef7
0,         24,         24,        1,   174243, 0xd66cbef7
0,         25,         25,        1,   174243, 0xd66cbef7
0,         26,         26,        1,   174243, 0x3314c3d3
0,         27,         27,        1,   174243, 0x34efb358
0,         28,         28,        1,   174243, 0x7307d8c8
0,         29,         29,        1,   174243, 0x80b57ea1
0,         30,         30,        1,   174243, 0xb0b51bf9
0,         31,         31,        1,   174243, 0x60c07516
0,         32,         32,        1,   174243, 0xcc35033f
0,         33,         33,        1,   174243, 0x2bf12dc4
0,         34,         34,        1,   174243, 0xf3025eb7
0,         35,         35,        1,   174243, 0xf3025eb7
0,         36,         36,        1,   174243, 0xf3025eb7
0,         37,         37,        1,   174243, 0xf3025eb7
0,         38,         38,        1,   174243, 0x06e761b3
0,         39,         39,        1,   174243, 0xa21152fb
0,         40,         40,        1,   174243, 0xd6dcc575
0,         41,         41,        1,   174243, 0xd6ceb82a
0,         42,         42,        1,   174243, 0x20efc206
0,         43,         43,        1,   174243, 0x20efc206
0,         44,         44,        1,   174243, 0x20efc206
0,         45,         45,        1,   174243, 0x20efc206
0,         46,         46,        1,   174243, 0xba03c1f5
0,         47,         47,        1,   174243, 0xba03c1f5
0,         48,         48,        1,   174243, 0xba03c1f5
0,         49,         49,        1,   174243, 0xba03c1f5
0,         50,         50,        1,   174243, 0x4cd1c214
0,         51,         51,        1,   174243, 0x4cd1c214
0,         52,         52,        1,   174243, 0x4cd1c214
0,         53,         53,        1,   174243, 0xa288c1ef
0,         54,         54,        1,   174243, 0xa288c1ef
0,         55,         55,        1,   174243, 0xa288c1ef
0,         56,         56,        1,   174243, 0xa288c1ef
